<?xml version="1.0" standalone="no"?><!DOCTYPE svg PUBLIC "-//W3C//DTD SVG 1.1//EN" "http://www.w3.org/Graphics/SVG/1.1/DTD/svg11.dtd"><svg t="1539488478061" class="icon" style="" viewBox="0 0 1024 1024" version="1.1" xmlns="http://www.w3.org/2000/svg" p-id="6061" xmlns:xlink="http://www.w3.org/1999/xlink" width="30" height="30"><defs><style type="text/css"></style></defs><path d="M621.5 288c-43.75 0-82.75 20.156-109.5 51.532C485 308.156 446 288 402.25 288 321.5 288 256 354.844 256 437.25 256 624 512 736 512 736s256-112 256-298.75C768 354.844 702.5 288 621.5 288z" p-id="6062" fill="#62b0d8"></path><path d="M512 0C229.218 0 0 229.218 0 512s229.218 512 512 512 512-229.218 512-512S794.782 0 512 0zM512 944c-238.594 0-432-193.406-432-432S273.406 80 512 80s432 193.406 432 432S750.594 944 512 944z" p-id="6063" fill="#62b0d8"></path></svg>