<?xml version="1.0" standalone="no"?><!DOCTYPE svg PUBLIC "-//W3C//DTD SVG 1.1//EN" "http://www.w3.org/Graphics/SVG/1.1/DTD/svg11.dtd"><svg t="1535547016520" class="icon" style="" viewBox="0 0 1024 1024" version="1.1" xmlns="http://www.w3.org/2000/svg" p-id="4593" xmlns:xlink="http://www.w3.org/1999/xlink" width="32" height="32"><defs><style type="text/css"></style></defs><path d="M812.434513 706.681958 343.42463 706.681958l24.291243-85.058235-0.151449-0.124843c3.677762-4.944616 4.496407-10.952446 3.162016-16.492626-0.056282-0.171915 0.019443-0.335644-0.036839-0.515746l-66.974367-341.520257-0.075725 0.020466c-2.038426-8.638751-9.465582-14.403035-17.884322-15.106046-0.455371-0.12382-0.799202-0.419556-1.258667-0.475837l0-0.103354-70.39221-12.903891-0.016373 0.180102c-10.971889-1.715061-21.217231 5.779633-22.968108 16.733103-1.75497 10.923794 5.747911 21.169135 16.720823 22.892383l60.278875 11.0558 61.278645 321.730539-35.507702 107.954711 0.075725 0.055259c-0.400113 0.552585-0.475837 1.199315-0.835018 1.790786-0.76441 1.276063-1.411139 2.530636-1.867534 3.981684-0.419556 1.295506-0.63138 2.550079-0.782829 3.845585-0.092098 0.763386-0.456395 1.446955-0.456395 2.210341 0 0.511653 0.248663 0.951675 0.284479 1.446955 0.115634 1.446955 0.438998 2.818185 0.859577 4.189416 0.339738 1.107217 0.627287 2.189875 1.143033 3.237741 0.606821 1.258667 1.462305 2.342348 2.361791 3.465938 0.719384 0.935302 1.427512 1.790786 2.302439 2.573615 0.475837 0.400113 0.723477 0.931209 1.199315 1.311879 0.759293 0.571005 1.675152 0.723477 2.494821 1.143033 0.935302 0.535189 1.846044 1.031493 2.877537 1.37123 1.635243 0.571005 3.273557 0.87902 5.009084 1.030469 0.531096 0.036839 1.011027 0.303922 1.578961 0.303922l0 0.096191 502.299057 0 0-0.192382c11.104919 0 20.110013-8.989745 20.110013-20.053732C832.544527 715.671703 823.539432 706.681958 812.434513 706.681958L812.434513 706.681958zM845.312318 362.614691c0.268106-1.226944 0.763386-2.369977 0.763386-3.653203 0-1.107217-0.459464-2.067079-0.627287-3.113921-0.060375-0.404206-0.156566-0.7552-0.24764-1.143033-0.475837-2.190899-1.25969-4.181229-2.38328-6.028297-0.227174-0.356111-0.455371-0.687662-0.703011-1.039679-1.182942-1.686409-2.534729-3.121084-4.189416-4.360308-0.515746-0.419556-1.086751-0.771573-1.658779-1.143033-1.52268-0.915859-3.105734-1.61887-4.876054-2.12336-0.511653-0.163729-0.87595-0.49528-1.408069-0.6191-0.63138-0.1361-1.198292 0.035816-1.810229-0.039909-0.763386-0.092098-1.427512-0.448208-2.210341-0.448208L374.515742 338.90264l0 0.088004c-11.104919 0-20.11513 8.997931-20.11513 20.074198 0 11.06501 9.010211 20.046568 20.11513 20.046568l0 0.104377 408.766824 0 14.226003-0.068562-67.254753 216.733183L448.640973 595.880409l0 0.083911c-11.103896 0-20.110013 9.002025-20.110013 20.067035 0 11.076266 9.006118 20.053732 20.110013 20.053732l0 0.10847 288.924365 0 0-0.192382c0.803295 0 1.467421-0.350994 2.214435-0.459464 0.132006 0.048095 0.224104 0.144286 0.360204 0.163729 10.835789 2.382257 21.577434-4.441149 23.979134-15.265682l0.096191 0.016373 79.897701-253.148557c0.268106-0.579191 0.419556-1.178849 0.63138-1.790786l0.759293-2.198062-0.191358-0.035816C845.372693 363.054713 845.276503 362.846982 845.312318 362.614691L845.312318 362.614691zM419.421488 785.328156c-20.094664 0-36.375465 16.249079-36.375465 36.283368s16.280802 36.263925 36.375465 36.263925c20.114107 0 36.378535-16.229636 36.378535-36.263925S439.535595 785.328156 419.421488 785.328156L419.421488 785.328156zM696.78454 785.328156c-20.074198 0-36.374442 16.249079-36.374442 36.283368s16.300244 36.263925 36.374442 36.263925c20.11513 0 36.400025-16.229636 36.400025-36.263925S716.89967 785.328156 696.78454 785.328156L696.78454 785.328156zM696.78454 785.328156M512 44.372603c-259.393795 0-469.674009 210.280214-469.674009 469.674009s210.280214 469.674009 469.674009 469.674009 469.674009-210.280214 469.674009-469.674009S771.393795 44.372603 512 44.372603zM512 944.559717c-237.766219 0-430.513104-192.746886-430.513104-430.513104S274.233781 83.533508 512 83.533508s430.513104 192.746886 430.513104 430.513104S749.765195 944.559717 512 944.559717z" p-id="4594" fill="#8a8a8a"></path></svg>