<?xml version="1.0" standalone="no"?><!DOCTYPE svg PUBLIC "-//W3C//DTD SVG 1.1//EN" "http://www.w3.org/Graphics/SVG/1.1/DTD/svg11.dtd"><svg t="1535181216878" class="icon" style="" viewBox="0 0 1024 1024" version="1.1" xmlns="http://www.w3.org/2000/svg" p-id="7061" xmlns:xlink="http://www.w3.org/1999/xlink" width="16" height="16"><defs><style type="text/css"></style></defs><path d="M512 960.070c-60.936 0-119.036-11.801-174.301-35.401-55.261-23.596-102.903-55.409-142.932-95.436-40.030-40.029-71.841-87.672-95.438-142.932-23.599-55.265-35.399-113.366-35.399-174.3 0-60.936 11.801-119.036 35.399-174.301 23.597-55.261 55.409-102.907 95.438-142.931 40.029-40.030 87.671-71.841 142.932-95.438 55.266-23.599 113.366-35.399 174.301-35.399 60.935 0 119.036 11.801 174.302 35.399 55.261 23.597 102.907 55.409 142.932 95.438 40.029 40.029 71.841 87.671 95.438 142.932 23.598 55.266 35.398 113.366 35.398 174.301 0 60.934-11.801 119.036-35.4 174.302-23.597 55.261-55.41 102.903-95.438 142.932s-87.672 71.841-142.932 95.436c-55.265 23.599-113.366 35.4-174.3 35.4v0zM512 175.947c-60.936 0-117.247 14.934-168.924 44.807s-92.449 70.645-122.322 122.322c-29.873 51.677-44.807 107.988-44.807 168.924 0 60.934 14.934 117.247 44.807 168.924s70.645 92.449 122.322 122.322c51.677 29.873 107.988 44.807 168.924 44.807 60.935 0 117.247-14.934 168.924-44.807s92.449-70.645 122.322-122.322 44.807-107.989 44.807-168.924c0-60.936-14.934-117.247-44.807-168.924-29.873-51.677-70.645-92.449-122.322-122.322s-107.988-44.807-168.924-44.807v0zM680.472 568.454h-168.472c-15.534 0-28.679-5.526-39.429-16.574-10.756-11.053-16.134-24.346-16.134-39.88v-167.579c0-15.53 5.377-28.822 16.134-39.875 10.75-11.053 23.896-16.58 39.429-16.58 15.534 0 28.826 5.528 39.881 16.58 11.048 11.053 16.575 24.346 16.575 39.875v112.018h112.018c14.938 0 27.931 5.377 38.983 16.134 11.051 10.75 16.579 23.896 16.579 39.429s-5.527 28.826-16.58 39.881c-11.053 11.048-24.044 16.573-38.983 16.573v0zM680.472 568.454z" p-id="7062" fill="#bfbfbf"></path></svg>