<?xml version="1.0" standalone="no"?><!DOCTYPE svg PUBLIC "-//W3C//DTD SVG 1.1//EN" "http://www.w3.org/Graphics/SVG/1.1/DTD/svg11.dtd"><svg t="1535546938534" class="icon" style="" viewBox="0 0 1024 1024" version="1.1" xmlns="http://www.w3.org/2000/svg" p-id="3431" xmlns:xlink="http://www.w3.org/1999/xlink" width="32" height="32"><defs><style type="text/css"></style></defs><path d="M928 96H96a32 32 0 0 0-32 32v768a32 32 0 0 0 32 32h832a32 32 0 0 0 32-32V128a32 32 0 0 0-32-32zM128 864V160h768v192H608a160 160 0 0 0 0 320h288v192z m768-448v192H608a96 96 0 0 1 0-192z" p-id="3432" fill="#8a8a8a"></path><path d="M608 512m-32 0a32 32 0 1 0 64 0 32 32 0 1 0-64 0Z" p-id="3433" fill="#8a8a8a"></path><path d="M928 96H96a32 32 0 0 0-32 32v768a32 32 0 0 0 32 32h832a32 32 0 0 0 32-32V128a32 32 0 0 0-32-32zM128 864V160h768v192H608a160 160 0 0 0 0 320h288v192z m768-448v192H608a96 96 0 0 1 0-192z" p-id="3434" fill="#8a8a8a"></path><path d="M608 512m-32 0a32 32 0 1 0 64 0 32 32 0 1 0-64 0Z" p-id="3435" fill="#8a8a8a"></path></svg>